<svg width="881" height="88" viewBox="0 0 881 88" fill="none" xmlns="http://www.w3.org/2000/svg">
<path d="M0.783 86V2.69999H45.289C56.7923 2.69999 65.281 4.76266 70.755 8.888C76.229 12.934 78.966 18.1303 78.966 24.477C78.966 28.6817 77.776 32.45 75.396 35.782C73.0953 39.0347 69.7237 41.613 65.281 43.517C60.8383 45.421 55.3643 46.373 48.859 46.373L51.239 39.947C57.7443 39.947 63.3373 40.8593 68.018 42.684C72.778 44.5087 76.4273 47.1663 78.966 50.657C81.584 54.0683 82.893 58.1937 82.893 63.033C82.893 70.2523 79.8783 75.885 73.849 79.931C67.899 83.977 59.1723 86 47.669 86H0.783ZM28.391 66.365H45.289C48.383 66.365 50.6837 65.8097 52.191 64.699C53.7777 63.5883 54.571 61.962 54.571 59.82C54.571 57.678 53.7777 56.0517 52.191 54.941C50.6837 53.8303 48.383 53.275 45.289 53.275H26.487V34.711H41.481C44.6543 34.711 46.955 34.1953 48.383 33.164C49.8903 32.0533 50.644 30.5063 50.644 28.523C50.644 26.4603 49.8903 24.9133 48.383 23.882C46.955 22.8507 44.6543 22.335 41.481 22.335H28.391V66.365ZM92.8221 86V2.69999H120.906V86H92.8221ZM177.623 87.904C170.879 87.904 164.652 86.8727 158.94 84.81C153.307 82.668 148.388 79.6533 144.184 75.766C140.058 71.8787 136.845 67.2773 134.545 61.962C132.244 56.6467 131.094 50.776 131.094 44.35C131.094 37.924 132.244 32.0533 134.545 26.738C136.845 21.4227 140.098 16.8213 144.303 12.934C148.507 9.04666 153.466 6.07166 159.178 4.009C164.969 1.867 171.316 0.795998 178.218 0.795998C186.468 0.795998 193.807 2.18433 200.233 4.96099C206.738 7.73766 212.093 11.7043 216.298 16.861L198.329 32.688C195.711 29.6733 192.855 27.4123 189.761 25.905C186.746 24.3183 183.374 23.525 179.646 23.525C176.552 23.525 173.735 24.001 171.197 24.953C168.737 25.905 166.635 27.2933 164.89 29.118C163.144 30.9427 161.796 33.1243 160.844 35.663C159.892 38.2017 159.416 41.0973 159.416 44.35C159.416 47.444 159.892 50.3 160.844 52.918C161.796 55.4567 163.144 57.6383 164.89 59.463C166.635 61.2877 168.698 62.7157 171.078 63.747C173.537 64.699 176.274 65.175 179.289 65.175C182.462 65.175 185.556 64.6593 188.571 63.628C191.585 62.5173 194.798 60.653 198.21 58.035L213.918 77.313C208.84 80.7243 203.049 83.3423 196.544 85.167C190.038 86.9917 183.731 87.904 177.623 87.904ZM189.523 73.743V42.089H213.918V77.313L189.523 73.743ZM292.619 87.904C285.638 87.904 278.895 87.1107 272.389 85.524C265.884 83.9373 260.529 81.8747 256.324 79.336L265.368 58.868C269.335 61.1687 273.738 63.033 278.577 64.461C283.496 65.8097 288.256 66.484 292.857 66.484C295.555 66.484 297.657 66.3253 299.164 66.008C300.751 65.6113 301.901 65.0957 302.615 64.461C303.329 63.747 303.686 62.914 303.686 61.962C303.686 60.4547 302.853 59.2647 301.187 58.392C299.521 57.5193 297.3 56.8053 294.523 56.25C291.826 55.6153 288.851 54.9807 285.598 54.346C282.346 53.632 279.053 52.7197 275.721 51.609C272.469 50.4983 269.454 49.0307 266.677 47.206C263.98 45.3813 261.798 43.0013 260.132 40.066C258.466 37.0513 257.633 33.3227 257.633 28.88C257.633 23.7233 259.061 19.0427 261.917 14.838C264.853 10.554 269.176 7.14267 274.888 4.604C280.68 2.06533 287.859 0.795998 296.427 0.795998C302.06 0.795998 307.613 1.391 313.087 2.581C318.561 3.77099 323.48 5.59566 327.843 8.055L319.394 28.404C315.269 26.3413 311.263 24.7943 307.375 23.763C303.567 22.7317 299.839 22.216 296.189 22.216C293.492 22.216 291.35 22.454 289.763 22.93C288.177 23.406 287.026 24.0407 286.312 24.834C285.678 25.6273 285.36 26.5 285.36 27.452C285.36 28.88 286.193 30.0303 287.859 30.903C289.525 31.6963 291.707 32.3707 294.404 32.926C297.181 33.4813 300.196 34.0763 303.448 34.711C306.78 35.3457 310.073 36.2183 313.325 37.329C316.578 38.4397 319.553 39.9073 322.25 41.732C325.027 43.5567 327.248 45.9367 328.914 48.872C330.58 51.8073 331.413 55.4567 331.413 59.82C331.413 64.8973 329.946 69.578 327.01 73.862C324.154 78.0667 319.87 81.478 314.158 84.096C308.446 86.6347 301.267 87.904 292.619 87.904ZM330.726 86L367.14 2.69999H394.748L431.162 86H402.126L375.232 16.028H386.18L359.286 86H330.726ZM352.384 71.482L359.524 51.252H397.842L404.982 71.482H352.384ZM435.644 86V2.69999H463.728V64.223H501.332V86H435.644ZM534.794 33.64H571.922V53.87H534.794V33.64ZM536.698 64.818H578.348V86H509.09V2.69999H576.801V23.882H536.698V64.818ZM621.385 86V68.745L651.492 40.899C653.396 39.0743 654.784 37.4877 655.657 36.139C656.609 34.7903 657.243 33.6003 657.561 32.569C657.878 31.4583 658.037 30.427 658.037 29.475C658.037 27.4123 657.362 25.8257 656.014 24.715C654.665 23.525 652.642 22.93 649.945 22.93C647.485 22.93 645.145 23.6043 642.924 24.953C640.702 26.2223 638.957 28.1263 637.688 30.665L616.506 20.074C619.52 14.362 624.042 9.721 630.072 6.151C636.101 2.581 643.598 0.795998 652.563 0.795998C659.147 0.795998 664.978 1.867 670.056 4.009C675.133 6.15099 679.1 9.16566 681.956 13.053C684.812 16.9403 686.24 21.5417 686.24 26.857C686.24 29.5543 685.883 32.2517 685.169 34.949C684.534 37.6463 683.185 40.5023 681.123 43.517C679.06 46.4523 676.006 49.7447 671.96 53.394L649.35 73.981L644.947 64.223H688.144V86H621.385ZM731.626 87.904C724.248 87.904 717.703 86.1983 711.991 82.787C706.358 79.3757 701.916 74.4173 698.663 67.912C695.49 61.4067 693.903 53.5527 693.903 44.35C693.903 35.1473 695.49 27.2933 698.663 20.788C701.916 14.2827 706.358 9.32433 711.991 5.913C717.703 2.50166 724.248 0.795998 731.626 0.795998C739.004 0.795998 745.509 2.50166 751.142 5.913C756.854 9.32433 761.297 14.2827 764.47 20.788C767.723 27.2933 769.349 35.1473 769.349 44.35C769.349 53.5527 767.723 61.4067 764.47 67.912C761.297 74.4173 756.854 79.3757 751.142 82.787C745.509 86.1983 739.004 87.904 731.626 87.904ZM731.626 65.413C733.451 65.413 735.077 64.7783 736.505 63.509C737.933 62.2397 739.044 60.058 739.837 56.964C740.71 53.87 741.146 49.6653 741.146 44.35C741.146 38.9553 740.71 34.7507 739.837 31.736C739.044 28.642 737.933 26.4603 736.505 25.191C735.077 23.9217 733.451 23.287 731.626 23.287C729.801 23.287 728.175 23.9217 726.747 25.191C725.319 26.4603 724.169 28.642 723.296 31.736C722.503 34.7507 722.106 38.9553 722.106 44.35C722.106 49.6653 722.503 53.87 723.296 56.964C724.169 60.058 725.319 62.2397 726.747 63.509C728.175 64.7783 729.801 65.413 731.626 65.413ZM788.911 86L845.793 2.69999H865.904L809.022 86H788.911ZM796.884 47.92C792.679 47.92 788.911 47.0473 785.579 45.302C782.247 43.4773 779.589 40.8197 777.606 37.329C775.702 33.8383 774.75 29.6337 774.75 24.715C774.75 19.7963 775.702 15.6313 777.606 12.22C779.589 8.72933 782.247 6.07166 785.579 4.247C788.911 2.42233 792.679 1.51 796.884 1.51C801.088 1.51 804.857 2.42233 808.189 4.247C811.521 6.07166 814.139 8.72933 816.043 12.22C818.026 15.6313 819.018 19.7963 819.018 24.715C819.018 29.6337 818.026 33.8383 816.043 37.329C814.139 40.8197 811.521 43.4773 808.189 45.302C804.857 47.0473 801.088 47.92 796.884 47.92ZM796.884 35.068C798.232 35.068 799.422 34.354 800.454 32.926C801.564 31.4187 802.12 28.6817 802.12 24.715C802.12 20.7483 801.564 18.051 800.454 16.623C799.422 15.1157 798.232 14.362 796.884 14.362C795.614 14.362 794.424 15.1157 793.314 16.623C792.203 18.051 791.648 20.7483 791.648 24.715C791.648 28.6817 792.203 31.4187 793.314 32.926C794.424 34.354 795.614 35.068 796.884 35.068ZM857.931 87.19C853.726 87.19 849.958 86.3173 846.626 84.572C843.294 82.7473 840.636 80.0897 838.653 76.599C836.749 73.1083 835.797 68.9037 835.797 63.985C835.797 59.0663 836.749 54.9013 838.653 51.49C840.636 47.9993 843.294 45.3417 846.626 43.517C849.958 41.6923 853.726 40.78 857.931 40.78C862.135 40.78 865.904 41.6923 869.236 43.517C872.568 45.3417 875.186 47.9993 877.09 51.49C879.073 54.9013 880.065 59.0663 880.065 63.985C880.065 68.9037 879.073 73.1083 877.09 76.599C875.186 80.0897 872.568 82.7473 869.236 84.572C865.904 86.3173 862.135 87.19 857.931 87.19ZM857.931 74.338C859.279 74.338 860.469 73.624 861.501 72.196C862.611 70.6887 863.167 67.9517 863.167 63.985C863.167 60.0183 862.611 57.321 861.501 55.893C860.469 54.3857 859.279 53.632 857.931 53.632C856.661 53.632 855.471 54.3857 854.361 55.893C853.25 57.321 852.695 60.0183 852.695 63.985C852.695 67.9517 853.25 70.6887 854.361 72.196C855.471 73.624 856.661 74.338 857.931 74.338Z" fill="#212123"/>
</svg>
